<?xml version="1.0" encoding="UTF-8" standalone="no" ?>
<!DOCTYPE svg PUBLIC "-//W3C//DTD SVG 1.1//EN" "http://www.w3.org/Graphics/SVG/1.1/DTD/svg11.dtd">
<svg xmlns="http://www.w3.org/2000/svg" xmlns:xlink="http://www.w3.org/1999/xlink" version="1.1" width="1280" height="1024" viewBox="0 0 1280 1024" xml:space="preserve">
<desc>Created with Fabric.js 5.3.0</desc>
<defs>
</defs>
<g transform="matrix(1 0 0 1 640 512)" id="background-logo"  >
<rect style="stroke: none; stroke-width: 0; stroke-dasharray: none; stroke-linecap: butt; stroke-dashoffset: 0; stroke-linejoin: miter; stroke-miterlimit: 4; fill: rgb(255,255,255); fill-rule: nonzero; opacity: 1;"  paint-order="stroke"  x="-640" y="-512" rx="0" ry="0" width="1280" height="1024" />
</g>
<g transform="matrix(1.9211538461538462 0 0 1.9211538461538462 592.2868346278576 533.6924226111471)" id="text-logo"  >
<g style=""  paint-order="stroke"   >
		<g transform="matrix(1 0 0 1 0 0)" id="text-logo-path-0"  >
<path style="stroke: none; stroke-width: 0; stroke-dasharray: none; stroke-linecap: butt; stroke-dashoffset: 0; stroke-linejoin: miter; stroke-miterlimit: 4; fill: rgb(64,64,64); fill-rule: nonzero; opacity: 1;"  paint-order="stroke"  transform=" translate(-134.83499999999998, 16.03)" d="M 11.8 0 L 5.8 0 Q 4.23 0 3.1 -1.13 Q 1.97 -2.26 1.97 -4.28 L 1.97 -4.28 L 1.97 -27.73 Q 1.97 -29.75 3.1 -30.9 Q 4.23 -32.06 5.8 -32.06 L 5.8 -32.06 L 12.83 -32.06 Q 16.32 -32.06 19.05 -30.93 Q 21.78 -29.8 23.4 -28.1 Q 25.03 -26.4 26.08 -24.17 Q 27.14 -21.93 27.53 -19.94 Q 27.93 -17.95 27.93 -16.08 L 27.93 -16.08 Q 27.93 -14.06 27.56 -12.1 Q 27.19 -10.13 26.08 -7.89 Q 24.98 -5.65 23.26 -3.98 Q 21.54 -2.31 18.59 -1.18 Q 15.64 -0.05 11.8 0 L 11.8 0 Z M 11.9 -25.37 L 9.44 -25.42 L 9.44 -6.44 L 11.51 -6.44 Q 14.11 -6.44 15.95 -7.35 Q 17.8 -8.26 18.71 -9.78 Q 19.62 -11.31 20.01 -12.91 Q 20.4 -14.5 20.4 -16.32 L 20.4 -16.32 Q 20.4 -18.59 19.86 -20.31 Q 19.32 -22.03 18.49 -22.91 Q 17.65 -23.8 16.67 -24.41 Q 15.68 -25.03 14.73 -25.12 Q 13.77 -25.22 13 -25.35 Q 12.24 -25.47 11.9 -25.37 L 11.9 -25.37 Z M 43.49 -23.13 Q 41.18 -20.6 41.18 -16.03 Q 41.18 -11.46 43.49 -8.95 Q 45.8 -6.44 48.95 -6.44 Q 52.1 -6.44 54.38 -8.95 Q 56.67 -11.46 56.67 -16.03 Q 56.67 -20.6 54.38 -23.13 Q 52.1 -25.67 48.95 -25.67 Q 45.8 -25.67 43.49 -23.13 Z M 33.32 -16.08 L 33.32 -16.08 Q 33.32 -20.31 34.99 -23.94 Q 36.66 -27.58 40.32 -30.02 Q 43.98 -32.45 48.95 -32.45 Q 53.92 -32.45 57.55 -30.02 Q 61.19 -27.58 62.86 -23.94 Q 64.54 -20.31 64.54 -16.08 L 64.54 -16.08 Q 64.54 -12.93 63.53 -10.03 Q 62.52 -7.13 60.65 -4.79 Q 58.78 -2.46 55.74 -1.06 Q 52.69 0.34 48.95 0.34 L 48.95 0.34 Q 41.58 0.34 37.45 -4.52 Q 33.32 -9.39 33.32 -16.08 Z M 94.71 -23.45 Q 93.82 -22.57 92.39 -22.57 Q 90.97 -22.57 90.11 -23.16 Q 89.25 -23.75 88.9 -24.44 Q 88.56 -25.12 87.72 -25.71 Q 86.89 -26.3 85.56 -26.3 L 85.56 -26.3 Q 81.73 -26.3 79.66 -23.48 Q 77.6 -20.65 77.6 -16.67 L 77.6 -16.67 Q 77.6 -12.44 79.81 -9.22 Q 82.02 -6 85.76 -6 L 85.76 -6 Q 87.58 -6 90.08 -7.15 Q 92.59 -8.31 93.38 -8.31 L 93.38 -8.31 Q 94.21 -8.31 95.05 -7.35 Q 95.89 -6.39 95.89 -5.16 L 95.89 -5.16 Q 95.89 -2.61 92.66 -1.11 Q 89.44 0.39 85.46 0.39 L 85.46 0.39 Q 78.14 0.39 74.08 -4.43 Q 70.02 -9.24 70.02 -15.83 L 70.02 -15.83 Q 70.02 -20.11 71.7 -23.82 Q 73.37 -27.53 76.91 -29.99 Q 80.45 -32.45 85.27 -32.45 L 85.27 -32.45 Q 89.49 -32.45 92.54 -30.43 Q 95.59 -28.42 95.59 -25.67 L 95.59 -25.67 Q 95.59 -24.34 94.71 -23.45 Z M 109.68 -28.17 L 109.68 -11.46 Q 109.68 -9 111.08 -7.62 Q 112.48 -6.24 114.4 -6.24 Q 116.32 -6.24 117.72 -7.62 Q 119.12 -9 119.12 -11.46 L 119.12 -11.46 L 119.12 -28.17 Q 119.12 -30.19 120.25 -31.32 Q 121.38 -32.45 122.96 -32.45 Q 124.53 -32.45 125.69 -31.29 Q 126.84 -30.14 126.84 -28.17 L 126.84 -28.17 L 126.84 -11.46 Q 126.84 -5.85 123.15 -2.73 Q 119.47 0.39 114.4 0.39 L 114.4 0.39 Q 109.39 0.39 105.67 -2.75 Q 101.96 -5.9 101.96 -11.46 L 101.96 -11.46 L 101.96 -28.17 Q 101.96 -30.14 103.12 -31.29 Q 104.27 -32.45 105.85 -32.45 Q 107.42 -32.45 108.55 -31.32 Q 109.68 -30.19 109.68 -28.17 L 109.68 -28.17 Z M 136.11 -32.11 L 153.81 -32.11 Q 155.98 -32.11 157.11 -31.1 Q 158.24 -30.09 158.24 -28.66 L 158.24 -28.66 Q 158.24 -27.19 157.03 -26.06 Q 155.83 -24.93 153.81 -24.93 L 153.81 -24.93 L 148.85 -24.93 L 148.85 -3.88 Q 148.85 -1.92 147.69 -0.76 Q 146.54 0.39 144.96 0.39 Q 143.39 0.39 142.23 -0.76 Q 141.08 -1.92 141.08 -3.88 L 141.08 -3.88 L 141.08 -24.93 L 136.11 -24.93 Q 134.1 -24.93 132.89 -26.06 Q 131.69 -27.19 131.69 -28.66 L 131.69 -28.66 Q 131.69 -30.09 132.82 -31.1 Q 133.95 -32.11 136.11 -32.11 L 136.11 -32.11 Z M 171.05 -25.81 L 171.05 -17.65 L 175.67 -17.65 Q 177.44 -17.65 178.5 -18.93 Q 179.56 -20.21 179.56 -21.88 L 179.56 -21.88 Q 179.56 -23.45 178.57 -24.63 Q 177.59 -25.81 175.77 -25.81 L 175.77 -25.81 L 171.05 -25.81 Z M 178.87 -1.82 L 171.05 -11.7 L 171.05 -3.88 Q 171.05 -1.87 169.95 -0.74 Q 168.84 0.39 167.31 0.39 Q 165.79 0.39 164.68 -0.74 Q 163.58 -1.87 163.58 -3.88 L 163.58 -3.88 L 163.58 -27.73 Q 163.58 -29.75 164.71 -30.9 Q 165.84 -32.06 167.41 -32.06 L 167.41 -32.06 L 176.75 -32.06 Q 181.43 -32.06 184.08 -29.06 Q 186.74 -26.06 186.74 -21.98 L 186.74 -21.98 Q 186.74 -18.59 184.82 -15.86 Q 182.9 -13.13 179.46 -12.19 L 179.46 -12.19 L 184.13 -7.38 Q 186.39 -5.11 186.39 -3.05 L 186.39 -3.05 Q 186.39 -1.57 185.33 -0.64 Q 184.28 0.3 182.75 0.3 L 182.75 0.3 Q 180.49 0.3 178.87 -1.82 L 178.87 -1.82 Z M 201.76 -20.6 L 201.76 -18 L 211.2 -18 L 211.2 -20.6 Q 211.2 -23.06 209.8 -24.44 Q 208.4 -25.81 206.48 -25.81 Q 204.56 -25.81 203.16 -24.44 Q 201.76 -23.06 201.76 -20.6 L 201.76 -20.6 Z M 211.2 -11.8 L 201.76 -11.8 L 201.76 -3.88 Q 201.76 -1.87 200.63 -0.74 Q 199.5 0.39 197.93 0.39 Q 196.35 0.39 195.2 -0.76 Q 194.04 -1.92 194.04 -3.88 L 194.04 -3.88 L 194.04 -20.6 Q 194.04 -26.21 197.73 -29.33 Q 201.42 -32.45 206.48 -32.45 Q 211.55 -32.45 215.23 -29.33 Q 218.92 -26.21 218.92 -20.6 L 218.92 -20.6 L 218.92 -3.88 Q 218.92 -1.92 217.77 -0.76 Q 216.61 0.39 215.04 0.39 Q 213.46 0.39 212.33 -0.74 Q 211.2 -1.87 211.2 -3.88 L 211.2 -3.88 L 211.2 -11.8 Z M 233.95 -28.22 L 233.95 -3.93 Q 233.95 -1.92 232.79 -0.76 Q 231.64 0.39 230.06 0.39 Q 228.49 0.39 227.36 -0.76 Q 226.23 -1.92 226.23 -3.93 L 226.23 -3.93 L 226.23 -28.22 Q 226.23 -30.24 227.36 -31.34 Q 228.49 -32.45 230.06 -32.45 Q 231.64 -32.45 232.79 -31.32 Q 233.95 -30.19 233.95 -28.22 L 233.95 -28.22 Z M 267.7 -28.17 L 267.7 -28.17 L 267.7 -4.28 Q 267.7 -2.41 266.62 -1.2 Q 265.54 0 263.97 0 L 263.97 0 Q 261.51 0 259.64 -2.66 L 259.64 -2.66 L 248.97 -18.49 L 248.97 -3.88 Q 248.97 -1.87 247.82 -0.74 Q 246.66 0.39 245.09 0.39 Q 243.51 0.39 242.38 -0.71 Q 241.25 -1.82 241.25 -3.88 L 241.25 -3.88 L 241.25 -27.88 Q 241.25 -29.75 242.33 -30.93 Q 243.42 -32.11 244.99 -32.11 L 244.99 -32.11 Q 247.45 -32.11 249.32 -29.45 L 249.32 -29.45 L 259.98 -13.96 L 259.98 -28.17 Q 259.98 -30.19 261.14 -31.32 Q 262.3 -32.45 263.87 -32.45 Q 265.44 -32.45 266.57 -31.32 Q 267.7 -30.19 267.7 -28.17 Z" stroke-linecap="round" />
</g>
</g>
</g>
<g transform="matrix(1.1037609460275235 0 0 1.1037609460275235 958.4021696664679 479.4896784099634)" id="logo-logo"  >
<g style=""  paint-order="stroke"   >
		<g transform="matrix(1.454307682173282 0 0 -1.4543076821732819 66.9426705959458 -3.090068289517461)"  >
<linearGradient id="SVGID_10_157302_dark" gradientUnits="userSpaceOnUse" gradientTransform="matrix(10 0 0 10 0 0)"  x1="24.710501" y1="32.427502" x2="24.778799" y2="30.517799">
<stop offset="0%" style="stop-color:rgb(32,32,32);stop-opacity: 1"/>
<stop offset="100%" style="stop-color:rgb(96,96,96);stop-opacity: 1"/>
</linearGradient>
<path style="stroke: none; stroke-width: 1; stroke-dasharray: none; stroke-linecap: butt; stroke-dashoffset: 0; stroke-linejoin: miter; stroke-miterlimit: 4; fill: url(#SVGID_10_157302_dark); fill-rule: nonzero; opacity: 1;"  paint-order="stroke"  transform=" translate(-249.83599999999996, -316.09)" d="M 236.195 331.094 L 236.195 288.80899999999997 L 251.738 304.35499999999996 C 263.477 316.09 263.477 319.69499999999994 263.477 343.371 L 236.19499999999996 331.094" stroke-linecap="round" />
</g>
		<g transform="matrix(1.454307682173282 0 0 -1.4543076821732819 27.19726726429576 -38.12336061373725)"  >
<path style="stroke: none; stroke-width: 1; stroke-dasharray: none; stroke-linecap: butt; stroke-dashoffset: 0; stroke-linejoin: miter; stroke-miterlimit: 4; fill: rgb(96,96,96); fill-rule: evenodd; opacity: 1;"  paint-order="stroke"  transform=" translate(-222.55499999999998, -339.83)" d="M 199.605 370.652 L 263.477 370.652 L 263.477 326.477 C 263.477 318.137 262.109 314.727 256.395 309.008 C 258.22299999999996 312.176 260.066 316.09 252.38299999999998 316.09 L 181.63299999999998 316.09 L 181.63299999999998 352.67999999999995 C 181.63299999999998 362.566 189.719 370.65199999999993 199.605 370.65199999999993" stroke-linecap="round" />
</g>
		<g transform="matrix(1.454307682173282 0 0 -1.4543076821732819 38.08967953779734 -49.01577288723885)"  >
<path style="stroke: none; stroke-width: 1; stroke-dasharray: none; stroke-linecap: butt; stroke-dashoffset: 0; stroke-linejoin: miter; stroke-miterlimit: 4; fill: rgb(255,255,255); fill-rule: evenodd; opacity: 1;"  paint-order="stroke"  transform=" translate(-236.19549999999998, -344.40250000000003)" d="M 236.195 337.582 C 232.43 337.582 229.375 340.633 229.375 344.402 C 229.375 348.168 232.43 351.223 236.195 351.223 C 239.96099999999998 351.223 243.016 348.168 243.016 344.402 C 243.016 340.633 239.96099999999998 337.582 236.195 337.582" stroke-linecap="round" />
</g>
		<g transform="matrix(1.454307682173282 0 0 -1.4543076821732819 5.41244271729272 -49.01577288723885)"  >
<path style="stroke: none; stroke-width: 1; stroke-dasharray: none; stroke-linecap: butt; stroke-dashoffset: 0; stroke-linejoin: miter; stroke-miterlimit: 4; fill: rgb(255,255,255); fill-rule: evenodd; opacity: 1;"  paint-order="stroke"  transform=" translate(-209.59750000000003, -344.40250000000003)" d="M 209.598 337.582 C 213.363 337.582 216.418 340.633 216.418 344.402 C 216.418 348.168 213.363 351.223 209.598 351.223 C 205.828 351.223 202.77700000000002 348.168 202.77700000000002 344.402 C 202.77700000000002 340.633 205.828 337.582 209.598 337.582" stroke-linecap="round" />
</g>
		<g transform="matrix(1.454307682173282 0 0 -1.4543076821732819 -66.90768402435981 3.0902329765538923)"  >
<linearGradient id="SVGID_11_157303_dark" gradientUnits="userSpaceOnUse" gradientTransform="matrix(10 0 0 10 0 0)"  x1="16.253599" y1="29.972099" x2="16.185301" y2="31.8818">
<stop offset="0%" style="stop-color:rgb(64,64,64);stop-opacity: 1"/>
<stop offset="100%" style="stop-color:rgb(128,128,128);stop-opacity: 1"/>
</linearGradient>
<path style="stroke: none; stroke-width: 1; stroke-dasharray: none; stroke-linecap: butt; stroke-dashoffset: 0; stroke-linejoin: miter; stroke-miterlimit: 4; fill: url(#SVGID_11_157303_dark); fill-rule: nonzero; opacity: 1;"  paint-order="stroke"  transform=" translate(-159.8045, -307.90649999999994)" d="M 173.445 292.902 L 173.445 335.188 L 157.902 319.64099999999996 C 146.164 307.90599999999995 146.164 304.301 146.164 280.62499999999994 L 173.445 292.90199999999993" stroke-linecap="round" />
</g>
		<g transform="matrix(1.454307682173282 0 0 -1.4543076821732819 -27.26479410321207 38.12352530077365)"  >
<path style="stroke: none; stroke-width: 1; stroke-dasharray: none; stroke-linecap: butt; stroke-dashoffset: 0; stroke-linejoin: miter; stroke-miterlimit: 4; fill: rgb(128,128,128); fill-rule: evenodd; opacity: 1;"  paint-order="stroke"  transform=" translate(-187.088, -284.166)" d="M 210.035 253.344 L 146.164 253.344 L 146.164 297.52 C 146.164 305.859 147.527 309.27 153.24599999999998 314.988 C 151.41799999999998 311.82 149.57799999999997 307.906 157.25799999999998 307.906 L 228.012 307.906 L 228.012 271.31600000000003 C 228.012 261.43 219.922 253.34400000000002 210.035 253.34400000000002" stroke-linecap="round" />
</g>
		<g transform="matrix(1.454307682173282 0 0 -1.4543076821732819 -49.04961865021522 49.015937574275256)"  >
<path style="stroke: none; stroke-width: 1; stroke-dasharray: none; stroke-linecap: butt; stroke-dashoffset: 0; stroke-linejoin: miter; stroke-miterlimit: 4; fill: rgb(255,255,255); fill-rule: evenodd; opacity: 1;"  paint-order="stroke"  transform=" translate(-173.44549999999998, -279.59349999999995)" d="M 173.445 286.414 C 177.215 286.414 180.266 283.363 180.266 279.594 C 180.266 275.828 177.215 272.77299999999997 173.445 272.77299999999997 C 169.68 272.77299999999997 166.625 275.828 166.625 279.594 C 166.625 283.363 169.68 286.414 173.445 286.414" stroke-linecap="round" />
</g>
		<g transform="matrix(1.454307682173282 0 0 -1.4543076821732819 -5.479969556208914 49.015937574275256)"  >
<path style="stroke: none; stroke-width: 1; stroke-dasharray: none; stroke-linecap: butt; stroke-dashoffset: 0; stroke-linejoin: miter; stroke-miterlimit: 4; fill: rgb(255,255,255); fill-rule: evenodd; opacity: 1;"  paint-order="stroke"  transform=" translate(-200.043, -279.59349999999995)" d="M 200.043 286.414 C 196.27700000000002 286.414 193.223 283.363 193.223 279.594 C 193.223 275.828 196.27700000000002 272.77299999999997 200.043 272.77299999999997 C 203.81300000000002 272.77299999999997 206.863 275.828 206.863 279.594 C 206.863 283.363 203.81300000000002 286.414 200.043 286.414" stroke-linecap="round" />
</g>
		<g transform="matrix(1.454307682173282 0 0 -1.4543076821732819 38.08967953779734 -92.5854219812451)"  >
<path style="stroke: none; stroke-width: 1; stroke-dasharray: none; stroke-linecap: butt; stroke-dashoffset: 0; stroke-linejoin: miter; stroke-miterlimit: 4; fill: rgb(96,96,96); fill-rule: evenodd; opacity: 1;"  paint-order="stroke"  transform=" translate(-229.88299999999998, -372.88699999999994)" d="M 234.082 384.102 L 237.49599999999998 382.133 L 225.67999999999998 361.67199999999997 L 222.26999999999998 363.64099999999996 L 234.082 384.102" stroke-linecap="round" />
</g>
		<g transform="matrix(1.454307682173282 0 0 -1.4543076821732819 48.982091811298915 -103.47783425474668)"  >
<path style="stroke: none; stroke-width: 1; stroke-dasharray: none; stroke-linecap: butt; stroke-dashoffset: 0; stroke-linejoin: miter; stroke-miterlimit: 4; fill: rgb(96,96,96); fill-rule: evenodd; opacity: 1;"  paint-order="stroke"  transform=" translate(-236.93617501701985, -385.1069677000934)" d="M 240.219 390.789 C 243.355 388.97999999999996 244.43 384.965 242.62099999999998 381.828 C 240.80899999999997 378.688 236.79699999999997 377.613 233.65599999999998 379.42199999999997 C 230.516 381.23799999999994 229.44099999999997 385.24999999999994 231.254 388.39099999999996 C 233.066 391.527 237.078 392.602 240.219 390.789" stroke-linecap="round" />
</g>
		<g transform="matrix(1.454307682173282 0 0 -1.4543076821732819 16.30485499079424 -92.5854219812451)"  >
<path style="stroke: none; stroke-width: 1; stroke-dasharray: none; stroke-linecap: butt; stroke-dashoffset: 0; stroke-linejoin: miter; stroke-miterlimit: 4; fill: rgb(96,96,96); fill-rule: evenodd; opacity: 1;"  paint-order="stroke"  transform=" translate(-214.6585, -372.88699999999994)" d="M 210.457 384.102 L 207.047 382.133 L 218.859 361.67199999999997 L 222.27 363.64099999999996 L 210.45700000000002 384.102" stroke-linecap="round" />
</g>
		<g transform="matrix(1.454307682173282 0 0 -1.4543076821732819 5.41244271729272 -103.47783425474668)"  >
<path style="stroke: none; stroke-width: 1; stroke-dasharray: none; stroke-linecap: butt; stroke-dashoffset: 0; stroke-linejoin: miter; stroke-miterlimit: 4; fill: rgb(96,96,96); fill-rule: evenodd; opacity: 1;"  paint-order="stroke"  transform=" translate(-207.60506379699382, -385.1069677000934)" d="M 204.324 390.789 C 201.18400000000003 388.97999999999996 200.109 384.965 201.92200000000003 381.828 C 203.73400000000004 378.688 207.75000000000003 377.613 210.88700000000003 379.42199999999997 C 214.02300000000002 381.23799999999994 215.10200000000003 385.24999999999994 213.28900000000002 388.39099999999996 C 211.477 391.527 207.461 392.602 204.324 390.789" stroke-linecap="round" />
</g>
		<g transform="matrix(1.454307682173282 0 0 -1.4543076821732819 -38.1572063767137 92.58558666828151)"  >
<path style="stroke: none; stroke-width: 1; stroke-dasharray: none; stroke-linecap: butt; stroke-dashoffset: 0; stroke-linejoin: miter; stroke-miterlimit: 4; fill: rgb(128,128,128); fill-rule: evenodd; opacity: 1;"  paint-order="stroke"  transform=" translate(-179.7595, -251.10950000000003)" d="M 175.559 239.895 L 172.148 241.863 L 183.96099999999998 262.324 L 187.37099999999998 260.355 L 175.55899999999997 239.895" stroke-linecap="round" />
</g>
		<g transform="matrix(1.454307682173282 0 0 -1.4543076821732819 -49.04961865021522 103.47799894178314)"  >
<path style="stroke: none; stroke-width: 1; stroke-dasharray: none; stroke-linecap: butt; stroke-dashoffset: 0; stroke-linejoin: miter; stroke-miterlimit: 4; fill: rgb(128,128,128); fill-rule: evenodd; opacity: 1;"  paint-order="stroke"  transform=" translate(-172.70315081254188, -238.88936345742565)" d="M 169.422 233.207 C 166.281 235.01999999999998 165.207 239.031 167.02 242.168 C 168.83200000000002 245.309 172.84400000000002 246.383 175.984 244.574 C 179.125 242.758 180.199 238.746 178.387 235.60500000000002 C 176.574 232.46900000000002 172.563 231.395 169.422 233.20700000000002" stroke-linecap="round" />
</g>
		<g transform="matrix(1.454307682173282 0 0 -1.4543076821732819 -16.37238182971049 92.58558666828151)"  >
<path style="stroke: none; stroke-width: 1; stroke-dasharray: none; stroke-linecap: butt; stroke-dashoffset: 0; stroke-linejoin: miter; stroke-miterlimit: 4; fill: rgb(128,128,128); fill-rule: evenodd; opacity: 1;"  paint-order="stroke"  transform=" translate(-194.98250000000002, -251.10950000000003)" d="M 199.184 239.895 L 202.594 241.863 L 190.781 262.324 L 187.371 260.355 L 199.184 239.895" stroke-linecap="round" />
</g>
		<g transform="matrix(1.454307682173282 0 0 -1.4543076821732819 -5.479969556208914 103.47799894178314)"  >
<path style="stroke: none; stroke-width: 1; stroke-dasharray: none; stroke-linecap: butt; stroke-dashoffset: 0; stroke-linejoin: miter; stroke-miterlimit: 4; fill: rgb(128,128,128); fill-rule: evenodd; opacity: 1;"  paint-order="stroke"  transform=" translate(-202.03647592610054, -238.88936345742565)" d="M 205.316 233.207 C 208.457 235.01999999999998 209.531 239.031 207.719 242.168 C 205.906 245.309 201.89499999999998 246.383 198.754 244.574 C 195.617 242.758 194.54299999999998 238.746 196.352 235.60500000000002 C 198.16400000000002 232.46900000000002 202.18 231.395 205.316 233.20700000000002" stroke-linecap="round" />
</g>
</g>
</g>
</svg>








