<?xml version="1.0" encoding="UTF-8"?><svg id="Layer_1" xmlns="http://www.w3.org/2000/svg" viewBox="0 0 317.31 99.81"><defs><style>.cls-1{fill:#636467;}.cls-1,.cls-2,.cls-3,.cls-4{stroke-width:0px;}.cls-2{fill:#555;}.cls-3{fill:#c8001e;}.cls-4{fill:#c00;}.cls-5{fill:#fff;stroke:#636467;stroke-width:4px;}</style></defs><path class="cls-1" d="M109.18,9.62h5.68v9.1h-5.68v-9.1ZM109.18,27.49h5.68v46.58h-5.68V27.47v.02ZM163.38,74.07h-5.22v-8.85h-.18c-2.44,6.05-9.84,10.2-16.6,10.2-14.2,0-20.96-11.46-20.96-24.64s6.77-24.63,20.95-24.63c6.94,0,13.7,3.5,16.14,10.2h.2V9.61h5.67v64.46ZM141.38,70.64c12.08,0,16.33-10.2,16.33-19.86s-4.25-19.85-16.34-19.85c-10.85,0-15.27,10.2-15.27,19.86s4.42,19.87,15.26,19.87l.02-.02ZM169.08,27.49h5.68v8.03h.18c2.07-5.6,8.3-9.38,14.9-9.38,13.08,0,17.05,6.85,17.05,17.96v29.97h-5.68v-29.08c0-8.03-2.6-14.08-11.82-14.08s-14.44,6.86-14.62,15.98v27.18h-5.7V27.49h.01ZM217.58,52.31c.1,8.3,4.44,18.33,15.36,18.33,8.3,0,12.82-4.88,14.63-11.92h5.67c-2.43,10.56-8.57,16.7-20.3,16.7-14.8,0-21.04-11.37-21.04-24.64,0-12.27,6.23-24.63,21.03-24.63s20.94,13.08,20.5,26.17h-35.85ZM247.74,47.53c-.27-8.57-5.6-16.6-14.8-16.6s-14.44,8.1-15.35,16.6h30.16,0Z"/><path class="cls-1" d="M2.35,81.62h1.33v14.1h-1.32v-14.1s-.01,0-.01,0ZM6.4,85.54h1.23v1.76h.04c.46-1.23,1.82-2.06,3.25-2.06,2.87,0,3.74,1.52,3.74,3.94v6.56h-1.25v-6.36c0-1.77-.56-3.09-2.58-3.09s-3.18,1.52-3.22,3.5v5.94h-1.21v-10.2ZM18.98,85.54h2.09v1.05h-2.09v6.88c0,.79.13,1.27,1.02,1.33.36,0,.72-.02,1.06-.07v1.06c-.37,0-.73.04-1.11.04-1.66,0-2.23-.56-2.21-2.3v-6.98h-1.78v-1.05h1.78v-3.06h1.25v3.06s-.01.02-.01.02ZM23.6,90.98c.02,1.81.98,4.01,3.36,4.01,1.81,0,2.8-1.08,3.2-2.63h1.25c-.54,2.32-1.88,3.67-4.45,3.67-3.23,0-4.6-2.5-4.6-5.4,0-2.69,1.38-5.39,4.61-5.39s4.59,2.87,4.49,5.75h-7.86ZM30.2,89.93c-.05-1.88-1.23-3.64-3.25-3.64s-3.15,1.78-3.34,3.64h6.6ZM33.13,85.54h1.15v2.39h.04c.63-1.63,2.01-2.6,3.85-2.53v1.25c-2.28-.11-3.8,1.54-3.8,3.66v5.42h-1.26v-10.2h.01ZM39.7,85.54h1.24v1.76h.04c.43-1.23,1.81-2.06,3.25-2.06,2.86,0,3.73,1.52,3.73,3.94v6.56h-1.24v-6.36c0-1.77-.57-3.09-2.6-3.09s-3.15,1.52-3.19,3.5v5.94h-1.24v-10.2ZM51.06,90.98c.02,1.81.98,4.01,3.36,4.01,1.81,0,2.8-1.08,3.2-2.63h1.24c-.54,2.32-1.88,3.67-4.45,3.67-3.23,0-4.6-2.5-4.6-5.4,0-2.69,1.37-5.39,4.6-5.39s4.59,2.87,4.49,5.75h-7.84ZM57.65,89.93c-.05-1.88-1.23-3.64-3.25-3.64s-3.15,1.78-3.34,3.64h6.6ZM62.56,85.54h2.08v1.05h-2.09v6.88c0,.79.11,1.27,1.01,1.33.36,0,.72-.02,1.08-.07v1.06c-.39,0-.76.04-1.13.04-1.66,0-2.22-.56-2.21-2.3v-6.98h-1.78v-1.05h1.78v-3.06h1.25v3.06s.01.02.01.02ZM72.79,91.09c-.04,2.91,2.06,3.8,4.62,3.8,1.48,0,3.73-.81,3.73-2.86,0-1.61-1.61-2.23-2.91-2.55l-3.15-.76c-1.65-.44-3.17-1.23-3.17-3.42,0-1.38.87-3.97,4.85-3.97,2.79,0,5.24,1.5,5.21,4.38h-1.33c-.08-2.15-1.84-3.23-3.85-3.23-1.84,0-3.55.71-3.55,2.8,0,1.33.98,1.88,2.14,2.17l3.44.84c2,.54,3.66,1.41,3.66,3.73,0,.98-.4,4.04-5.4,4.04-3.33,0-5.78-1.52-5.64-4.95h1.36ZM91.57,88.74c-.33-1.52-1.27-2.45-2.89-2.45-2.39,0-3.58,2.17-3.58,4.34s1.19,4.36,3.58,4.36c1.54,0,2.82-1.21,2.96-2.93h1.24c-.33,2.46-1.93,3.97-4.21,3.97-3.12,0-4.82-2.47-4.82-5.4s1.69-5.39,4.82-5.39c2.17,0,3.85,1.17,4.12,3.5h-1.24.01ZM94.62,81.62h1.24v5.67s.04,0,.04,0c.47-1.23,1.84-2.06,3.28-2.06,2.86,0,3.73,1.52,3.73,3.94v6.56h-1.27v-6.36c0-1.77-.54-3.09-2.57-3.09s-3.17,1.52-3.21,3.5v5.94h-1.24v-14.1s0-.01,0-.01ZM114.39,90.64c0,2.93-1.7,5.4-4.83,5.4s-4.82-2.47-4.82-5.4,1.7-5.39,4.82-5.39,4.83,2.5,4.83,5.4h0ZM105.98,90.64c0,2.17,1.19,4.34,3.58,4.34s3.58-2.17,3.58-4.34-1.19-4.34-3.58-4.34-3.58,2.17-3.58,4.34ZM125.38,90.64c0,2.93-1.7,5.4-4.83,5.4s-4.82-2.47-4.82-5.4,1.69-5.39,4.81-5.39,4.83,2.5,4.83,5.4h.01ZM116.98,90.64c0,2.17,1.19,4.34,3.58,4.34s3.58-2.17,3.58-4.34-1.19-4.34-3.58-4.34-3.58,2.17-3.58,4.34ZM127.24,81.62h1.26v14.1h-1.26v-14.1ZM145.52,90.64c0,2.93-1.7,5.4-4.83,5.4s-4.82-2.47-4.82-5.4,1.69-5.39,4.82-5.39,4.83,2.5,4.83,5.4h0ZM137.11,90.64c0,2.17,1.19,4.34,3.58,4.34s3.58-2.17,3.58-4.34-1.19-4.34-3.58-4.34-3.58,2.17-3.58,4.34ZM151.32,86.59h-2.03v9.14h-1.25v-9.14h-1.74v-1.05h1.74v-.92c-.02-1.77.48-2.99,2.47-2.99.36,0,.65.02,1.04.09v1.06c-.33-.05-.61-.11-.9-.11-1.41,0-1.36.87-1.38,1.99v.89h2.02v1.05h.02ZM158.21,81.62h1.5l8.22,11.93h.05v-11.93h1.33v14.1h-1.5l-8.22-11.93h-.04v11.93h-1.35v-14.1ZM172.64,90.98c.02,1.81.98,4.01,3.36,4.01,1.81,0,2.8-1.08,3.2-2.63h1.24c-.54,2.32-1.88,3.67-4.45,3.67-3.23,0-4.6-2.5-4.6-5.4,0-2.69,1.37-5.39,4.61-5.39s4.58,2.87,4.48,5.75h-7.84ZM179.24,89.93c-.05-1.88-1.23-3.64-3.23-3.64s-3.17,1.78-3.36,3.64h6.6ZM182.16,85.54h1.15v1.95h.02c.57-1.41,2-2.25,3.64-2.25,3.1,0,4.58,2.52,4.58,5.4s-1.48,5.4-4.58,5.4c-1.52,0-3-.76-3.54-2.23h-.04v5.71h-1.25v-13.98h.01ZM186.99,86.3c-2.76,0-3.58,2.03-3.58,4.34,0,2.12.92,4.34,3.58,4.34,2.36,0,3.33-2.22,3.33-4.34s-.98-4.34-3.33-4.34ZM193.49,81.62h1.25v5.67s.03,0,.03,0c.46-1.23,1.82-2.06,3.25-2.06,2.87,0,3.75,1.52,3.75,3.94v6.56h-1.24v-6.36c0-1.77-.57-3.09-2.6-3.09s-3.15,1.52-3.19,3.5v5.94h-1.25v-14.1s-.01-.01-.01-.01ZM204.13,85.54h1.14v2.39h.04c.63-1.63,2.02-2.6,3.85-2.53v1.25c-2.26-.11-3.8,1.54-3.8,3.66v5.42h-1.24v-10.2h0ZM219.12,90.64c0,2.93-1.69,5.4-4.82,5.4s-4.83-2.47-4.83-5.4,1.71-5.39,4.84-5.39,4.83,2.5,4.83,5.4h-.02ZM210.73,90.64c0,2.17,1.19,4.34,3.58,4.34s3.58-2.17,3.58-4.34-1.19-4.34-3.58-4.34-3.58,2.17-3.58,4.34ZM221.01,81.62h1.24v14.1h-1.24v-14.1ZM233.77,90.64c0,2.93-1.69,5.4-4.82,5.4s-4.82-2.47-4.82-5.4,1.69-5.39,4.82-5.39,4.83,2.5,4.83,5.4h-.01ZM225.37,90.64c0,2.17,1.19,4.34,3.58,4.34s3.58-2.17,3.58-4.34-1.19-4.34-3.58-4.34-3.58,2.17-3.58,4.34ZM244.26,94.91c-.02,3.04-1.19,4.9-4.53,4.9-2.04,0-4.06-.91-4.23-3.09h1.24c.28,1.5,1.61,2.03,2.98,2.03,2.28,0,3.28-1.37,3.28-3.85v-1.39h-.04c-.57,1.25-1.78,2.09-3.25,2.09-3.25,0-4.59-2.32-4.59-5.23s1.66-5.14,4.6-5.14c1.48,0,2.73.94,3.23,2.06h.04v-1.76h1.24v9.37h.04ZM243.01,90.52c0-2-.93-4.23-3.29-4.23s-3.36,2.12-3.36,4.23,1.06,4.06,3.36,4.06c2.15,0,3.28-1.95,3.28-4.05h.01ZM245.48,85.54h1.32l3.36,8.7,3.15-8.7h1.24l-4.43,11.76c-.72,1.74-1.13,2.21-2.69,2.21-.5-.02-.76-.02-.95-.11v-1.03c.3.07.57.11.87.11,1.08,0,1.35-.65,1.77-1.61l.43-1.16-4.07-10.16h0Z"/><path class="cls-1" d="M275.68,80.47c-3.27,7.85-5.16,10.1-12.3,10.1-2.25-.1-3.42-.1-4.32-.44v-4.8c1.35.28,2.62.47,3.88.47,5.06,0,6.23-2.98,8.12-7.32l2-5.3-18.6-46.4h6.04l15.35,39.7,14.35-39.7h5.7"/><path class="cls-5" d="M293.13,46.92c-12.25,0-22.18-10.05-22.18-22.46s9.93-22.46,22.18-22.46,22.18,10.05,22.18,22.45-9.93,22.45-22.18,22.45"/><path class="cls-3" d="M302.24,20.07c.1.55.15,1.1.17,1.6.25,5.42-1.3,13-7.78,14.88-4.34,1.26-11.64-.87-10.76-6.06.5-2.88,5.55-3.6,5.48-6.63-.04-2.23-3.18-3.24-3.68-5.43-.5-2.1.78-5,2.84-6.02,2.75-1.34,6.12-1.4,9-.05,2.74,1.3,4.23,4.76,4.72,7.7h0Z"/><path class="cls-2" d="M294.92,55.6h-3.69v-1.33h8.98v1.33h-3.71v10.8h-1.58v-10.8Z"/><path class="cls-2" d="M311.79,61.08c-.09-1.69-.2-3.73-.18-5.24h-.05c-.41,1.42-.92,2.94-1.53,4.61l-2.14,5.89h-1.19l-1.96-5.78c-.58-1.71-1.06-3.28-1.4-4.72h-.04c-.04,1.51-.13,3.55-.23,5.37l-.32,5.2h-1.5l.85-12.14h2l2.07,5.87c.5,1.49.92,2.83,1.22,4.09h.05c.31-1.22.74-2.56,1.28-4.09l2.16-5.87h2l.76,12.14h-1.53l-.31-5.33Z"/><path class="cls-2" d="M5.62,10.87v38.53c0,3.6.39,6.67,1.16,9.2.77,2.53,1.9,4.59,3.39,6.19,1.49,1.6,3.31,2.76,5.46,3.49,2.15.73,4.57,1.09,7.27,1.09s5.21-.36,7.36-1.09c2.15-.73,3.97-1.89,5.45-3.49,1.49-1.6,2.62-3.66,3.39-6.19.77-2.53,1.16-5.59,1.16-9.2V10.87h5.62v39.84c0,3.2-.43,6.23-1.28,9.11-.85,2.88-2.2,5.39-4.05,7.54-1.85,2.15-4.21,3.85-7.11,5.1-2.89,1.25-6.41,1.87-10.54,1.87s-7.56-.63-10.46-1.87c-2.89-1.25-5.26-2.95-7.11-5.1-1.85-2.15-3.2-4.66-4.05-7.54-.85-2.88-1.28-5.91-1.28-9.11V10.87h5.62Z"/><path class="cls-4" d="M62.81,10.87v33.47L97.11,10.87h7.6l-26.37,25.71,27.6,36.52h-7.27l-24.55-32.43-11.32,11.07v21.36h-5.62V10.87h5.62Z"/></svg>