<?xml version="1.0" encoding="UTF-8"?>
<svg width="193px" height="251px" viewBox="0 0 193 251" version="1.1" xmlns="http://www.w3.org/2000/svg" xmlns:xlink="http://www.w3.org/1999/xlink">
    <title>Icon</title>
    <defs>
        <linearGradient x1="47.4972599%" y1="65.0013196%" x2="48.123158%" y2="30.0007148%" id="linearGradient-1">
            <stop stop-color="#003399" offset="0%"></stop>
            <stop stop-color="#3399FF" offset="100%"></stop>
        </linearGradient>
        <linearGradient x1="52.5030148%" y1="34.9980573%" x2="51.8771626%" y2="69.997984%" id="linearGradient-2">
            <stop stop-color="#0066CC" offset="0%"></stop>
            <stop stop-color="#66CCFF" offset="100%"></stop>
        </linearGradient>
    </defs>
    <g id="Page-1" stroke="none" stroke-width="1" fill="none" fill-rule="evenodd">
        <g id="docutrain-logo" transform="translate(-536, 0)">
            <g id="Icon" transform="translate(536.552, -0.0995)" fill-rule="nonzero">
                <g id="Path" transform="translate(59.8242, 0.6413)">
                    <g id="Group" transform="translate(474.4147, -3.9629) scale(-1, 1) rotate(-180) translate(-474.4147, 3.9629)translate(109.9147, -129.4629)" fill="url(#linearGradient-1)">
                        <path d="M-21.8966426,24.0845412 L-21.8966426,-43.7916801 L3.05310566,-18.8371162 C21.8966426,0 21.8966426,5.78677492 21.8966426,43.7916801 L-21.8966426,24.0845412" id="Path"></path>
                    </g>
                    <g id="Group" transform="translate(430.5452, -42.6313) scale(-1, 1) rotate(-180) translate(-430.5452, 42.6313)translate(66.0452, -168.1313)" fill="#3399FF">
                        <path d="M-36.8395241,49.4757217 L65.6883227,49.4757217 L65.6883227,-21.4343427 C65.6883227,-34.8217776 63.4923981,-40.295537 54.3202395,-49.4757217 C57.2545598,-44.3904227 60.2129582,-38.1076385 47.8801449,-38.1076385 L-65.6883227,-38.1076385 L-65.6883227,20.6269231 C-65.6883227,36.4960096 -52.7086106,49.4757217 -36.8395241,49.4757217" id="Path"></path>
                    </g>
                    <g id="Group" transform="translate(442.5679, -54.6539) scale(-1, 1) rotate(-180) translate(-442.5679, 54.6539)translate(78.0679, -180.1539)" fill="#FFFFFF">
                        <path d="M-0.000802604012,-10.9483213 C-6.04441081,-10.9483213 -10.9483213,-6.05083164 -10.9483213,-0.000802604012 C-10.9483213,6.04441081 -6.04441081,10.9483213 -0.000802604012,10.9483213 C6.04441081,10.9483213 10.9483213,6.04441081 10.9483213,-0.000802604012 C10.9483213,-6.05083164 6.04441081,-10.9483213 -0.000802604012,-10.9483213" id="Path"></path>
                    </g>
                    <g id="Group" transform="translate(406.5, -54.6539) scale(-1, 1) rotate(-180) translate(-406.5, 54.6539)translate(42, -180.1539)" fill="#FFFFFF">
                        <path d="M0.000802604012,-10.9483213 C6.04441081,-10.9483213 10.9483213,-6.05083164 10.9483213,-0.000802604012 C10.9483213,6.04441081 6.04441081,10.9483213 0.000802604012,10.9483213 C-6.05083164,10.9483213 -10.9483213,6.04441081 -10.9483213,-0.000802604012 C-10.9483213,-6.05083164 -6.05083164,-10.9483213 0.000802604012,-10.9483213" id="Path"></path>
                    </g>
                    <g id="Group" transform="translate(442.5679, -102.7444) scale(-1, 1) rotate(-180) translate(-442.5679, 102.7444)translate(78.0679, -228.2444)" fill="#3399FF">
                        <polyline id="Path" points="6.74026849 18.002408 12.2204487 14.8417534 -6.74668932 -18.002408 -12.2204487 -14.8417534 6.74026849 18.002408"></polyline>
                    </g>
                    <g id="Group" transform="translate(454.5905, -114.767) scale(-1, 1) rotate(-180) translate(-454.5905, 114.767)translate(90.0905, -240.267)" fill="#3399FF">
                        <path d="M5.269617,9.12084384 C10.3035494,6.21702252 12.029148,-0.227887691 9.12532667,-5.26342526 C6.21668973,-10.3037785 -0.223404854,-12.0293771 -5.26536325,-9.12555576 C-10.3057164,-6.21049799 -12.0313151,0.229596595 -9.12107293,5.271555 C-6.21243599,10.3054874 0.227658601,12.031086 5.269617,9.12084384" id="Path"></path>
                    </g>
                    <g id="Group" transform="translate(418.5226, -102.7444) scale(-1, 1) rotate(-180) translate(-418.5226, 102.7444)translate(54.0226, -228.2444)" fill="#3399FF">
                        <polyline id="Path" points="-6.74428151 18.002408 -12.2180409 14.8417534 6.7426763 -18.002408 12.2180409 -14.8417534 -6.74428151 18.002408"></polyline>
                    </g>
                    <g id="Group" transform="translate(406.5, -114.767) scale(-1, 1) rotate(-180) translate(-406.5, 114.767)translate(42, -240.267)" fill="#3399FF">
                        <path d="M-5.26678993,9.12084384 C-10.3071431,6.21702252 -12.0327417,-0.227887691 -9.1224996,-5.26342526 C-6.21386266,-10.3037785 0.232652756,-12.0293771 5.26819032,-9.12555576 C10.3021227,-6.21049799 12.0341421,0.229596595 9.1239,5.271555 C6.21526306,10.3054874 -0.231252363,12.031086 -5.26678993,9.12084384" id="Path"></path>
                    </g>
                </g>
                <g id="Path" transform="translate(386.5, 3.5) scale(-1, 1) rotate(-180) translate(-386.5, -3.5)translate(22, -122)" fill="url(#linearGradient-2)">
                    <path d="M21.89584,-24.0853438 L21.89584,43.7924827 L-3.05390826,18.8363135 C-21.89584,-0.000802604012 -21.89584,-5.78757753 -21.89584,-43.7924827 L21.89584,-24.0853438"></path>
                </g>
                <g id="Path" transform="translate(430.2563, 42.1684) scale(-1, 1) rotate(-180) translate(-430.2563, -42.1684)translate(65.7563, -83.3316)" fill="#66CCFF">
                    <path d="M36.8347085,-49.4757217 L-65.6915331,-49.4757217 L-65.6915331,21.4359479 C-65.6915331,34.8217776 -63.5036346,40.2971422 -54.3234499,49.4757217 C-57.2577702,44.3904227 -60.2113529,38.1076385 -47.8833553,38.1076385 L65.6915331,38.1076385 L65.6915331,-20.6269231 C65.6915331,-36.4960096 52.7054002,-49.4757217 36.8347085,-49.4757217"></path>
                </g>
                <g id="Path" transform="translate(406.2111, 54.191) scale(-1, 1) rotate(-180) translate(-406.2111, -54.191)translate(41.7111, -71.309)" fill="#FFFFFF">
                    <path d="M-0.000802604012,10.9483213 C6.05083164,10.9483213 10.9483213,6.05083164 10.9483213,0.000802604012 C10.9483213,-6.04441081 6.05083164,-10.9483213 -0.000802604012,-10.9483213 C-6.04441081,-10.9483213 -10.9483213,-6.04441081 -10.9483213,0.000802604012 C-10.9483213,6.05083164 -6.04441081,10.9483213 -0.000802604012,10.9483213"></path>
                </g>
                <g id="Path" transform="translate(454.3016, 54.191) scale(-1, 1) rotate(-180) translate(-454.3016, -54.191)translate(89.8016, -71.309)" fill="#FFFFFF">
                    <path d="M0,10.9483213 C-6.04521341,10.9483213 -10.9475187,6.05083164 -10.9475187,0.000802604012 C-10.9475187,-6.04441081 -6.04521341,-10.9483213 0,-10.9483213 C6.05163425,-10.9483213 10.9475187,-6.04441081 10.9475187,0.000802604012 C10.9475187,6.05083164 6.05163425,10.9483213 0,10.9483213"></path>
                </g>
                <g id="Path" transform="translate(418.2337, 102.2815) scale(-1, 1) rotate(-180) translate(-418.2337, -102.2815)translate(53.7337, -23.2185)" fill="#66CCFF">
                    <polyline points="-6.7426763 -18.0016054 -12.2180409 -14.842556 6.74428151 18.0016054 12.2180409 14.8409508 -6.7426763 -18.0016054"></polyline>
                </g>
                <g id="Path" transform="translate(406.2111, 114.3041) scale(-1, 1) rotate(-180) translate(-406.2111, -114.3041)translate(41.7111, -11.1959)" fill="#66CCFF">
                    <path d="M-5.26692961,-9.12137541 C-10.308888,-6.21113327 -12.0328814,0.227356115 -9.12263928,5.26289368 C-6.21400234,10.3048521 0.226092246,12.0288455 5.26644544,9.12502419 C10.3084038,6.20996642 12.0323973,-0.230128172 9.12376032,-5.27208657 C6.21351817,-10.3060189 -0.224971209,-12.0300123 -5.26692961,-9.12137541"></path>
                </g>
                <g id="Path" transform="translate(442.2789, 102.2815) scale(-1, 1) rotate(-180) translate(-442.2789, -102.2815)translate(77.7789, -23.2185)" fill="#66CCFF">
                    <polyline points="6.74428151 -18.0016054 12.2180409 -14.842556 -6.74428151 18.0016054 -12.2180409 14.8409508 6.74428151 -18.0016054"></polyline>
                </g>
                <g id="Path" transform="translate(454.3016, 114.3041) scale(-1, 1) rotate(-180) translate(-454.3016, -114.3041)translate(89.8016, -11.1959)" fill="#66CCFF">
                    <path d="M5.26431836,-9.12137541 C10.3062768,-6.21113327 12.0302702,0.227356115 9.12163323,5.26289368 C6.21139109,10.3048521 -0.227098292,12.0288455 -5.26905669,9.12502419 C-10.3045943,6.20996642 -12.0285877,-0.230128172 -9.12476636,-5.27208657 C-6.21612943,-10.3060189 0.230385995,-12.0300123 5.26431836,-9.12137541"></path>
                </g>
            </g>
        </g>
    </g>
</svg>