<?xml version="1.0" encoding="UTF-8"?>
<svg width="729px" height="251px" viewBox="0 0 729 251" version="1.1" xmlns="http://www.w3.org/2000/svg" xmlns:xlink="http://www.w3.org/1999/xlink">
    <title>Group</title>
    <defs>
        <linearGradient x1="47.4972599%" y1="65.0013196%" x2="48.123158%" y2="30.0007148%" id="linearGradient-1">
            <stop stop-color="#003399" offset="0%"></stop>
            <stop stop-color="#3399FF" offset="100%"></stop>
        </linearGradient>
        <linearGradient x1="52.5030148%" y1="34.9980573%" x2="51.8771626%" y2="69.997984%" id="linearGradient-2">
            <stop stop-color="#0066CC" offset="0%"></stop>
            <stop stop-color="#66CCFF" offset="100%"></stop>
        </linearGradient>
    </defs>
    <g id="Page-1" stroke="none" stroke-width="1" fill="none" fill-rule="evenodd">
        <g id="docutrain-logo-blue" transform="translate(-239, -370)">
            <g id="Group" transform="translate(238.2868, 370.1675)">
                <g id="text-logo" transform="translate(248, 35.5249)" fill="#0066CC" fill-rule="nonzero">
                    <path d="M-239.896087,105.796096 C-241.906894,105.796096 -243.635933,105.072462 -245.083202,103.625192 C-246.530471,102.177923 -247.254106,100.160712 -247.254106,97.5735577 L-247.254106,52.5225 C-247.254106,49.9353462 -246.530471,47.9053269 -245.083202,46.4324423 C-243.635933,44.94675 -241.906894,44.2039038 -239.896087,44.2039038 L-226.390375,44.2039038 C-221.92049,44.2039038 -217.937298,44.9275385 -214.440798,46.3748077 C-210.944298,47.8220769 -208.158625,49.6343654 -206.083779,51.8116731 C-203.996125,53.9889808 -202.279894,56.5056923 -200.935087,59.3618077 C-199.577471,62.2307308 -198.648913,64.9395577 -198.149413,67.4882885 C-197.637106,70.0370192 -197.380952,72.5089038 -197.380952,74.9039423 C-197.380952,77.4910962 -197.617894,80.0398269 -198.091779,82.5501346 C-198.565663,85.07325 -199.513433,87.7692692 -200.935087,90.6381923 C-202.343933,93.5071154 -204.149817,96.0110192 -206.35274,98.1499038 C-208.555663,100.288788 -211.54626,102.081865 -215.324529,103.529135 C-219.102798,104.976404 -223.45101,105.732058 -228.369163,105.796096 L-239.896087,105.796096 Z M-228.177048,57.0564231 L-232.903087,56.9603654 L-232.903087,93.4238654 L-228.926298,93.4238654 C-225.596298,93.4238654 -222.75299,92.8411154 -220.396375,91.6756154 C-218.026952,90.5101154 -216.25949,88.9539808 -215.09399,87.0072115 C-213.92849,85.0476346 -213.09599,83.0432308 -212.59649,80.994 C-212.09699,78.9575769 -211.84724,76.7738654 -211.84724,74.4428654 L-211.84724,74.4428654 C-211.84724,71.5355192 -212.193048,68.9803846 -212.884663,66.7774615 C-213.576279,64.5745385 -214.453606,62.9095385 -215.516644,61.7824615 C-216.59249,60.6425769 -217.75799,59.682 -219.013144,58.9007308 C-220.281106,58.1066538 -221.523452,57.6519808 -222.740183,57.5367115 C-223.969721,57.4086346 -225.077587,57.2613462 -226.063779,57.0948462 C-227.037163,56.9411538 -227.741587,56.9283462 -228.177048,57.0564231 L-228.177048,57.0564231 Z M-167.487798,61.3598077 C-170.446375,64.6001538 -171.925663,69.1468846 -171.925663,75 C-171.925663,80.8531154 -170.446375,85.3870385 -167.487798,88.6017692 C-164.529221,91.8165 -161.032721,93.4238654 -156.998298,93.4238654 C-152.963875,93.4238654 -149.486587,91.8165 -146.566433,88.6017692 C-143.633471,85.3870385 -142.16699,80.8531154 -142.16699,75 C-142.16699,69.1468846 -143.633471,64.6001538 -146.566433,61.3598077 C-149.486587,58.1066538 -152.963875,56.4800769 -156.998298,56.4800769 C-161.032721,56.4800769 -164.529221,58.1066538 -167.487798,61.3598077 Z M-187.025933,74.9039423 L-187.025933,74.9039423 C-187.025933,69.4862885 -185.95649,64.4528654 -183.817606,59.8036731 C-181.678721,55.1416731 -178.265471,51.2481346 -173.577856,48.1230577 C-168.89024,45.0107885 -163.363721,43.4546538 -156.998298,43.4546538 C-150.632875,43.4546538 -145.125567,45.0107885 -140.476375,48.1230577 C-135.814375,51.2481346 -132.413933,55.1416731 -130.275048,59.8036731 C-128.123356,64.4528654 -127.04751,69.4862885 -127.04751,74.9039423 L-127.04751,74.9039423 C-127.04751,78.9383654 -127.694298,82.8126923 -128.987875,86.5269231 C-130.281452,90.2411538 -132.12576,93.5967692 -134.520798,96.5937692 C-136.915837,99.5779615 -140.060125,101.966596 -143.953663,103.759673 C-147.86001,105.55275 -152.208221,106.449288 -156.998298,106.449288 L-156.998298,106.449288 C-166.437567,106.449288 -173.80199,103.337019 -179.091567,97.1124808 C-184.381144,90.8751346 -187.025933,83.4722885 -187.025933,74.9039423 Z M-69.0862981,60.7450385 C-70.2261827,61.8721154 -71.711875,62.4356538 -73.543375,62.4356538 C-75.3620673,62.4356538 -76.8221442,62.0578269 -77.9236058,61.3021731 C-79.0250673,60.5465192 -79.7999327,59.7268269 -80.2482019,58.8430962 C-80.6836635,57.9721731 -81.4393173,57.1588846 -82.5151635,56.4032308 C-83.5782019,55.6475769 -84.9614327,55.26975 -86.6648558,55.26975 L-86.6648558,55.26975 C-91.5702019,55.26975 -95.3484712,57.0756346 -97.9996635,60.6874038 C-100.638048,64.3119808 -101.95724,68.673 -101.95724,73.7704615 L-101.95724,73.7704615 C-101.95724,79.1881154 -100.54199,83.9589808 -97.7114904,88.0830577 C-94.8809904,92.2071346 -91.0707019,94.2691731 -86.280625,94.2691731 L-86.280625,94.2691731 C-83.949625,94.2691731 -81.1831635,93.5327308 -77.9812404,92.0598462 C-74.7665096,90.5741538 -72.6532404,89.8313077 -71.6414327,89.8313077 L-71.6414327,89.8313077 C-70.5783942,89.8313077 -69.5089519,90.4460769 -68.4331058,91.6756154 C-67.3572596,92.9051538 -66.8193365,94.3075962 -66.8193365,95.8829423 L-66.8193365,95.8829423 C-66.8193365,99.1489038 -68.8877788,101.742462 -73.0246635,103.663615 C-77.1487404,105.584769 -81.7595096,106.545346 -86.8569712,106.545346 L-86.8569712,106.545346 C-96.2322019,106.545346 -103.519779,103.458692 -108.719702,97.2853846 C-113.919625,91.1248846 -116.519587,83.8245 -116.519587,75.3842308 L-116.519587,75.3842308 C-116.519587,69.9025385 -115.44374,64.7858654 -113.292048,60.0342115 C-111.153163,55.2825577 -107.81676,51.3313846 -103.282837,48.1806923 C-98.7489135,45.03 -93.3952981,43.4546538 -87.2219904,43.4546538 L-87.2219904,43.4546538 C-81.8171442,43.4546538 -77.1615481,44.7482308 -73.2552019,47.3353846 C-69.3488558,49.9097308 -67.3956827,52.9579615 -67.3956827,56.4800769 L-67.3956827,56.4800769 C-67.3956827,58.1835 -67.9592212,59.6051538 -69.0862981,60.7450385 Z M-40.326625,51.6771923 L-40.326625,83.7796731 C-40.326625,86.9303654 -39.4300865,89.3894423 -37.6370096,91.1569038 C-35.8439327,92.9243654 -33.7178558,93.8080962 -31.2587788,93.8080962 C-28.7997019,93.8080962 -26.673625,92.9243654 -24.8805481,91.1569038 C-23.0874712,89.3894423 -22.1909327,86.9303654 -22.1909327,83.7796731 L-22.1909327,83.7796731 L-22.1909327,51.6771923 C-22.1909327,49.0900385 -21.4672981,47.0728269 -20.0200288,45.6255577 C-18.5727596,44.1782885 -16.8373173,43.4546538 -14.8137019,43.4546538 C-12.8028942,43.4546538 -11.0546442,44.1975 -9.56895192,45.6831923 C-8.09606731,47.1560769 -7.359625,49.1540769 -7.359625,51.6771923 L-7.359625,51.6771923 L-7.359625,83.7796731 C-7.359625,90.9647885 -9.72264423,96.5553462 -14.4486827,100.551346 C-19.1619135,104.547346 -24.7652788,106.545346 -31.2587788,106.545346 L-31.2587788,106.545346 C-37.6754327,106.545346 -43.2659904,104.534538 -48.0304519,100.512923 C-52.7821058,96.4785 -55.1579327,90.90075 -55.1579327,83.7796731 L-55.1579327,83.7796731 L-55.1579327,51.6771923 C-55.1579327,49.1540769 -54.4150865,47.1560769 -52.9293942,45.6831923 C-51.4565096,44.1975 -49.7082596,43.4546538 -47.6846442,43.4546538 C-45.6738365,43.4546538 -43.9447981,44.1782885 -42.4975288,45.6255577 C-41.0502596,47.0728269 -40.326625,49.0900385 -40.326625,51.6771923 L-40.326625,51.6771923 Z M10.4494712,44.1078462 L44.4538942,44.1078462 C47.2331635,44.1078462 49.3464327,44.7546346 50.7937019,46.0482115 C52.2409712,47.3417885 52.9646058,48.9043269 52.9646058,50.7358269 L52.9646058,50.7358269 C52.9646058,52.6185577 52.1897404,54.2835577 50.6400096,55.7308269 C49.1030865,57.1780962 47.0410481,57.9017308 44.4538942,57.9017308 L44.4538942,57.9017308 L34.9249712,57.9017308 L34.9249712,98.3420192 C34.9249712,100.852327 34.182125,102.850327 32.6964327,104.336019 C31.2235481,105.808904 29.4752981,106.545346 27.4516827,106.545346 C25.440875,106.545346 23.692625,105.808904 22.2069327,104.336019 C20.7340481,102.850327 19.9976058,100.852327 19.9976058,98.3420192 L19.9976058,98.3420192 L19.9976058,57.9017308 L10.4494712,57.9017308 C7.875125,57.9017308 5.81308654,57.1780962 4.26335577,55.7308269 C2.72643269,54.2835577 1.95797115,52.6185577 1.95797115,50.7358269 L1.95797115,50.7358269 C1.95797115,48.9043269 2.68160577,47.3417885 4.128875,46.0482115 C5.57614423,44.7546346 7.68300962,44.1078462 10.4494712,44.1078462 L10.4494712,44.1078462 Z M77.5745865,56.2111154 L77.5745865,71.8877308 L86.4503173,71.8877308 C88.7172788,71.8877308 90.5295673,71.0680385 91.8871827,69.4286538 C93.2447981,67.7892692 93.9236058,65.9001346 93.9236058,63.76125 L93.9236058,63.76125 C93.9236058,61.7504423 93.289625,59.9893846 92.0216635,58.4780769 C90.7665096,56.9667692 88.9734327,56.2111154 86.6424327,56.2111154 L86.6424327,56.2111154 L77.5745865,56.2111154 Z M92.5980096,102.299596 L77.5745865,83.3185962 L77.5745865,98.3420192 C77.5745865,100.916365 76.8701635,102.927173 75.4613173,104.374442 C74.0396635,105.821712 72.3490481,106.545346 70.3894712,106.545346 C68.4427019,106.545346 66.7584904,105.821712 65.3368365,104.374442 C63.9279904,102.927173 63.2235673,100.916365 63.2235673,98.3420192 L63.2235673,98.3420192 L63.2235673,52.5225 C63.2235673,49.9353462 63.9472019,47.9053269 65.3944712,46.4324423 C66.8417404,44.94675 68.5707788,44.2039038 70.5815865,44.2039038 L70.5815865,44.2039038 L88.5251635,44.2039038 C94.5191635,44.2039038 99.2131827,46.1250577 102.607221,49.9673654 C106.014067,53.8096731 107.71749,58.3435962 107.71749,63.5691346 L107.71749,63.5691346 C107.71749,67.9109423 106.487952,71.8300962 104.028875,75.3265962 C101.569798,78.8230962 98.1373365,81.1733077 93.7314904,82.3772308 L93.7314904,82.3772308 L102.703279,91.6179808 C105.597817,94.5253269 107.045087,97.2981923 107.045087,99.9365769 L107.045087,99.9365769 C107.045087,101.832115 106.366279,103.375442 105.008663,104.566558 C103.663856,105.770481 102.011663,106.372442 100.052087,106.372442 L100.052087,106.372442 C97.1575481,106.372442 94.6728558,105.014827 92.5980096,102.299596 L92.5980096,102.299596 Z M136.573221,66.2203269 L136.573221,71.2153269 L154.708913,71.2153269 L154.708913,66.2203269 C154.708913,63.0696346 153.812375,60.6105577 152.019298,58.8430962 C150.226221,57.0884423 148.100144,56.2111154 145.641067,56.2111154 C143.18199,56.2111154 141.055913,57.0884423 139.262837,58.8430962 C137.46976,60.6105577 136.573221,63.0696346 136.573221,66.2203269 L136.573221,66.2203269 Z M154.708913,83.1264808 L136.573221,83.1264808 L136.573221,98.3420192 C136.573221,100.916365 135.849587,102.927173 134.402317,104.374442 C132.955048,105.821712 131.22601,106.545346 129.215202,106.545346 C127.191587,106.545346 125.443337,105.808904 123.970452,104.336019 C122.48476,102.850327 121.741913,100.852327 121.741913,98.3420192 L121.741913,98.3420192 L121.741913,66.2203269 C121.741913,59.0352115 124.104933,53.4446538 128.830971,49.4486538 C133.55701,45.4526538 139.160375,43.4546538 145.641067,43.4546538 C152.134567,43.4546538 157.737933,45.4526538 162.451163,49.4486538 C167.177202,53.4446538 169.540221,59.0352115 169.540221,66.2203269 L169.540221,66.2203269 L169.540221,98.3420192 C169.540221,100.852327 168.803779,102.850327 167.330894,104.336019 C165.845202,105.808904 164.096952,106.545346 162.086144,106.545346 C160.062529,106.545346 158.327087,105.821712 156.879817,104.374442 C155.432548,102.927173 154.708913,100.916365 154.708913,98.3420192 L154.708913,98.3420192 L154.708913,83.1264808 Z M198.415163,51.5811346 L198.415163,98.2459615 C198.415163,100.820308 197.672317,102.850327 196.186625,104.336019 C194.71374,105.808904 192.96549,106.545346 190.941875,106.545346 C188.931067,106.545346 187.202029,105.808904 185.75476,104.336019 C184.30749,102.850327 183.583856,100.820308 183.583856,98.2459615 L183.583856,98.2459615 L183.583856,51.5811346 C183.583856,48.9939808 184.30749,46.9959808 185.75476,45.5871346 C187.202029,44.1654808 188.931067,43.4546538 190.941875,43.4546538 C192.96549,43.4546538 194.71374,44.1782885 196.186625,45.6255577 C197.672317,47.0728269 198.415163,49.0580192 198.415163,51.5811346 L198.415163,51.5811346 Z M263.254106,51.6771923 L263.254106,97.5735577 C263.254106,99.9685962 262.56249,101.940981 261.17926,103.490712 C259.796029,105.027635 258.09901,105.796096 256.088202,105.796096 C252.93751,105.796096 250.164644,104.092673 247.769606,100.685827 L227.270894,70.2739615 L227.270894,98.3420192 C227.270894,100.916365 226.534452,102.927173 225.061567,104.374442 C223.575875,105.821712 221.827625,106.545346 219.816817,106.545346 C217.793202,106.545346 216.05776,105.840923 214.61049,104.432077 C213.163221,103.010423 212.439587,100.980404 212.439587,98.3420192 L212.439587,52.2343269 C212.439587,49.8392885 213.131202,47.8861154 214.514433,46.3748077 C215.910471,44.8635 217.613894,44.1078462 219.624702,44.1078462 C222.775394,44.1078462 225.54826,45.8112692 227.943298,49.2181154 L248.422798,78.9767885 L248.422798,51.6771923 C248.422798,49.0900385 249.165644,47.0728269 250.651337,45.6255577 C252.137029,44.1782885 253.885279,43.4546538 255.896087,43.4546538 C257.906894,43.4546538 259.635933,44.1782885 261.083202,45.6255577 C262.530471,47.0728269 263.254106,49.0900385 263.254106,51.6771923 Z" id="Shape"></path>
                </g>
                <g transform="translate(597.0894, 0.3743)" id="Path">
                    <g transform="translate(1137.2478, -700.3294) scale(-1, 1) rotate(-180) translate(-1137.2478, 700.3294)translate(109.9147, -1522.1959)" fill="url(#linearGradient-1)" fill-rule="nonzero">
                        <path d="M-21.8966426,24.0845412 L-21.8966426,-43.7916801 L3.05310566,-18.8371162 C21.8966426,0 21.8966426,5.78677492 21.8966426,43.7916801 L-21.8966426,24.0845412"></path>
                    </g>
                    <g transform="translate(1093.3784, -738.9978) scale(-1, 1) rotate(-180) translate(-1093.3784, 738.9978)translate(66.0452, -1560.8643)" fill="#3399FF">
                        <path d="M-36.8395241,49.4757217 L65.6883227,49.4757217 L65.6883227,-21.4343427 C65.6883227,-34.8217776 63.4923981,-40.295537 54.3202395,-49.4757217 C57.2545598,-44.3904227 60.2129582,-38.1076385 47.8801449,-38.1076385 L-65.6883227,-38.1076385 L-65.6883227,20.6269231 C-65.6883227,36.4960096 -52.7086106,49.4757217 -36.8395241,49.4757217"></path>
                    </g>
                    <g transform="translate(1105.401, -751.0204) scale(-1, 1) rotate(-180) translate(-1105.401, 751.0204)translate(78.0679, -1572.8869)" fill="#FFFFFF">
                        <path d="M-0.000802604012,-10.9483213 C-6.04441081,-10.9483213 -10.9483213,-6.05083164 -10.9483213,-0.000802604012 C-10.9483213,6.04441081 -6.04441081,10.9483213 -0.000802604012,10.9483213 C6.04441081,10.9483213 10.9483213,6.04441081 10.9483213,-0.000802604012 C10.9483213,-6.05083164 6.04441081,-10.9483213 -0.000802604012,-10.9483213"></path>
                    </g>
                    <g transform="translate(1069.3331, -751.0204) scale(-1, 1) rotate(-180) translate(-1069.3331, 751.0204)translate(42, -1572.8869)" fill="#FFFFFF">
                        <path d="M0.000802604012,-10.9483213 C6.04441081,-10.9483213 10.9483213,-6.05083164 10.9483213,-0.000802604012 C10.9483213,6.04441081 6.04441081,10.9483213 0.000802604012,10.9483213 C-6.05083164,10.9483213 -10.9483213,6.04441081 -10.9483213,-0.000802604012 C-10.9483213,-6.05083164 -6.05083164,-10.9483213 0.000802604012,-10.9483213"></path>
                    </g>
                    <g transform="translate(1105.401, -799.1109) scale(-1, 1) rotate(-180) translate(-1105.401, 799.1109)translate(78.0679, -1620.9774)" fill="#3399FF">
                        <polyline points="6.74026849 18.002408 12.2204487 14.8417534 -6.74668932 -18.002408 -12.2204487 -14.8417534 6.74026849 18.002408"></polyline>
                    </g>
                    <g transform="translate(1117.4236, -811.1335) scale(-1, 1) rotate(-180) translate(-1117.4236, 811.1335)translate(90.0905, -1633)" fill="#3399FF">
                        <path d="M5.269617,9.12084384 C10.3035494,6.21702252 12.029148,-0.227887691 9.12532667,-5.26342526 C6.21668973,-10.3037785 -0.223404854,-12.0293771 -5.26536325,-9.12555576 C-10.3057164,-6.21049799 -12.0313151,0.229596595 -9.12107293,5.271555 C-6.21243599,10.3054874 0.227658601,12.031086 5.269617,9.12084384"></path>
                    </g>
                    <g transform="translate(1081.3558, -799.1109) scale(-1, 1) rotate(-180) translate(-1081.3558, 799.1109)translate(54.0226, -1620.9774)" fill="#3399FF">
                        <polyline points="-6.74428151 18.002408 -12.2180409 14.8417534 6.7426763 -18.002408 12.2180409 -14.8417534 -6.74428151 18.002408"></polyline>
                    </g>
                    <g transform="translate(1069.3331, -811.1335) scale(-1, 1) rotate(-180) translate(-1069.3331, 811.1335)translate(42, -1633)" fill="#3399FF">
                        <path d="M-5.26678993,9.12084384 C-10.3071431,6.21702252 -12.0327417,-0.227887691 -9.1224996,-5.26342526 C-6.21386266,-10.3037785 0.232652756,-12.0293771 5.26819032,-9.12555576 C10.3021227,-6.21049799 12.0341421,0.229596595 9.1239,5.271555 C6.21526306,10.3054874 -0.231252363,12.031086 -5.26678993,9.12084384"></path>
                    </g>
                </g>
                <g transform="translate(1586.5984, -693.1335) scale(-1, 1) rotate(-180) translate(-1586.5984, 693.1335)translate(559.2652, -1515)" fill="url(#linearGradient-2)" fill-rule="nonzero" id="Path">
                    <path d="M21.89584,-24.0853438 L21.89584,43.7924827 L-3.05390826,18.8363135 C-21.89584,-0.000802604012 -21.89584,-5.78757753 -21.89584,-43.7924827 L21.89584,-24.0853438"></path>
                </g>
                <g transform="translate(1630.3547, -654.4651) scale(-1, 1) rotate(-180) translate(-1630.3547, 654.4651)translate(603.0215, -1476.3316)" fill="#66CCFF" id="Path">
                    <path d="M36.8347085,-49.4757217 L-65.6915331,-49.4757217 L-65.6915331,21.4359479 C-65.6915331,34.8217776 -63.5036346,40.2971422 -54.3234499,49.4757217 C-57.2577702,44.3904227 -60.2113529,38.1076385 -47.8833553,38.1076385 L65.6915331,38.1076385 L65.6915331,-20.6269231 C65.6915331,-36.4960096 52.7054002,-49.4757217 36.8347085,-49.4757217"></path>
                </g>
                <g transform="translate(1606.3094, -642.4425) scale(-1, 1) rotate(-180) translate(-1606.3094, 642.4425)translate(578.9763, -1464.309)" fill="#FFFFFF" id="Path">
                    <path d="M-0.000802604012,10.9483213 C6.05083164,10.9483213 10.9483213,6.05083164 10.9483213,0.000802604012 C10.9483213,-6.04441081 6.05083164,-10.9483213 -0.000802604012,-10.9483213 C-6.04441081,-10.9483213 -10.9483213,-6.04441081 -10.9483213,0.000802604012 C-10.9483213,6.05083164 -6.04441081,10.9483213 -0.000802604012,10.9483213"></path>
                </g>
                <g transform="translate(1654.3999, -642.4425) scale(-1, 1) rotate(-180) translate(-1654.3999, 642.4425)translate(627.0668, -1464.309)" fill="#FFFFFF" id="Path">
                    <path d="M0,10.9483213 C-6.04521341,10.9483213 -10.9475187,6.05083164 -10.9475187,0.000802604012 C-10.9475187,-6.04441081 -6.04521341,-10.9483213 0,-10.9483213 C6.05163425,-10.9483213 10.9475187,-6.04441081 10.9475187,0.000802604012 C10.9475187,6.05083164 6.05163425,10.9483213 0,10.9483213"></path>
                </g>
                <g transform="translate(1618.332, -594.352) scale(-1, 1) rotate(-180) translate(-1618.332, 594.352)translate(590.9989, -1416.2185)" fill="#66CCFF" id="Path">
                    <polyline points="-6.7426763 -18.0016054 -12.2180409 -14.842556 6.74428151 18.0016054 12.2180409 14.8409508 -6.7426763 -18.0016054"></polyline>
                </g>
                <g transform="translate(1606.3094, -582.3294) scale(-1, 1) rotate(-180) translate(-1606.3094, 582.3294)translate(578.9763, -1404.1959)" fill="#66CCFF" id="Path">
                    <path d="M-5.26692961,-9.12137541 C-10.308888,-6.21113327 -12.0328814,0.227356115 -9.12263928,5.26289368 C-6.21400234,10.3048521 0.226092246,12.0288455 5.26644544,9.12502419 C10.3084038,6.20996642 12.0323973,-0.230128172 9.12376032,-5.27208657 C6.21351817,-10.3060189 -0.224971209,-12.0300123 -5.26692961,-9.12137541"></path>
                </g>
                <g transform="translate(1642.3773, -594.352) scale(-1, 1) rotate(-180) translate(-1642.3773, 594.352)translate(615.0441, -1416.2185)" fill="#66CCFF" id="Path">
                    <polyline points="6.74428151 -18.0016054 12.2180409 -14.842556 -6.74428151 18.0016054 -12.2180409 14.8409508 6.74428151 -18.0016054"></polyline>
                </g>
                <g transform="translate(1654.3999, -582.3294) scale(-1, 1) rotate(-180) translate(-1654.3999, 582.3294)translate(627.0668, -1404.1959)" fill="#66CCFF" id="Path">
                    <path d="M5.26431836,-9.12137541 C10.3062768,-6.21113327 12.0302702,0.227356115 9.12163323,5.26289368 C6.21139109,10.3048521 -0.227098292,12.0288455 -5.26905669,9.12502419 C-10.3045943,6.20996642 -12.0285877,-0.230128172 -9.12476636,-5.27208657 C-6.21612943,-10.3060189 0.230385995,-12.0300123 5.26431836,-9.12137541"></path>
                </g>
            </g>
        </g>
    </g>
</svg>